<svg id="close" data-name="Layer 1" xmlns="http://www.w3.org/2000/svg" viewBox="0 0 512 515.13"><path d="M146,478.9,317.89,222.49l-78-65L21.08,379C-52.15,459.48,84.05,567.3,146,478.9ZM344.13,202.71c40.45-2.41,77.23-17.53,98-72.35a15.26,15.26,0,0,1,14.59-10c11.11,0,45.46,27.67,55.25,34.35C512,72.38,474.07,0,384,0,308.14,0,256,43.77,256,120.19a86.87,86.87,0,0,0,1.06,10Z" transform="translate(0 0)"/><path d="M483.86,377.06l-229-207L179.3,237.9,367,486.31C436.12,570.36,562.42,451.09,483.86,377.06Z" transform="translate(0 0)"/></svg>